<?xml version="1.0" encoding="utf-8"?>
<!-- Generator: Adobe Illustrator 26.2.1, SVG Export Plug-In . SVG Version: 6.00 Build 0)  -->
<svg version="1.1" id="Layer_1" xmlns="http://www.w3.org/2000/svg" xmlns:xlink="http://www.w3.org/1999/xlink" x="0px" y="0px"
	 viewBox="0 0 800 800" style="enable-background:new 0 0 800 800;" xml:space="preserve">
<style type="text/css">
	.st0{fill:#DFAA97;}
	.st1{fill:none;stroke:#FFFFFF;stroke-width:3;stroke-miterlimit:10;}
	.st2{font-family:'MyriadPro-Regular';}
	.st3{font-size:449.1279px;}
	.st4{fill:#D6A491;}
	.st5{font-family:'HelveticaNeue-Light';}
	.st6{font-size:82.603px;}
	.st7{letter-spacing:2.04;}
	.st8{letter-spacing:1.46;}
	.st9{font-family:'HelveticaNeue-Thin';}
	.st10{font-size:48.0494px;}
	.st11{letter-spacing:1;}
	.st12{letter-spacing:1.43;}
</style>
<path class="st0" d="M397.99,65.67C254.4,66.72,139.75,183.43,136.65,317.85c-3.24,140.46,116.12,265.12,265.42,264
	c145.41-1.09,262.45-121.07,261.33-260.06C662.29,182.98,543.63,64.61,397.99,65.67z"/>
<text transform="matrix(1.1285 0 0 1 194.7531 475.7923)" class="st1 st2 st3">K</text>
<polygon class="st1" points="380.53,299.74 530.14,299.74 530.14,173.08 570.52,173.08 570.52,475.79 530.14,475.79 530.14,333.87
	380.53,333.87 "/>
<text transform="matrix(0.9795 0 0 1 136.5879 668.1412)" class="st4 st5 st6 st7">K</text>
<text transform="matrix(0.6857 0 0 0.7 191.6069 668.1412)" class="st4 st5 st6 st8">aitlyn</text>
<text transform="matrix(0.9795 0 0 1 387.1181 668.1412)" class="st4 st5 st6 st7"> H</text>
<text transform="matrix(0.6857 0 0 0.7 471.7509 668.1412)" class="st4 st5 st6 st8">arsch</text>
<text transform="matrix(1 0 0 1 246.407 716.3314)" class="st4 st9 st10 st11">D</text>
<text transform="matrix(0.7 0 0 0.7 279.9929 716.3314)" class="st4 st9 st10 st12">esign</text>
<text transform="matrix(1 0 0 1 378.8445 716.3314)" class="st4 st9 st10 st11"> S</text>
<text transform="matrix(0.7 0 0 0.7 425.5476 716.3314)" class="st4 st9 st10 st12">tudent</text>
</svg>
